REM DIRINDEX 1\2,1\3,1\4,1\5
REM DIRNAME folder01,folder02,folder03,folder04,folder05
TITLE ""
FILE "Round-05-104-105.mp3" MP3
  TRACK 01 AUDIO
    TITLE "0:"
    INDEX 01 00:00:00
  TRACK 02 AUDIO
    TITLE "2:cjc093_1226"
    INDEX 01 00:00:01
  TRACK 03 AUDIO
    TITLE "0:"
    INDEX 01 00:01:13
  TRACK 04 AUDIO
    TITLE "3:cjc093_1227"
    INDEX 01 00:01:56
  TRACK 05 AUDIO
    TITLE "0:"
    INDEX 01 00:03:68
  TRACK 06 AUDIO
    TITLE "4:cjc093_1228"
    INDEX 01 00:03:74
  TRACK 07 AUDIO
    TITLE "0:"
    INDEX 01 00:06:59
  TRACK 08 AUDIO
    TITLE "2:cjc093_1229"
    INDEX 01 00:07:70
  TRACK 09 AUDIO
    TITLE "0:"
    INDEX 01 00:09:04
  TRACK 10 AUDIO
    TITLE "3:cjc093_1230"
    INDEX 01 00:09:22
  TRACK 11 AUDIO
    TITLE "0:"
    INDEX 01 00:10:21
  TRACK 12 AUDIO
    TITLE "4:cjc093_1231"
    INDEX 01 00:10:51
  TRACK 13 AUDIO
    TITLE "0:"
    INDEX 01 00:13:45
  TRACK 14 AUDIO
    TITLE "2:cjc093_1232"
    INDEX 01 00:14:49
  TRACK 15 AUDIO
    TITLE "0:"
    INDEX 01 00:16:32
  TRACK 16 AUDIO
    TITLE "3:cjc093_1233"
    INDEX 01 00:16:65
  TRACK 17 AUDIO
    TITLE "0:"
    INDEX 01 00:17:69
  TRACK 18 AUDIO
    TITLE "4:cjc093_1234"
    INDEX 01 00:18:60
  TRACK 19 AUDIO
    TITLE "0:"
    INDEX 01 00:22:30
  TRACK 20 AUDIO
    TITLE "2:cjc093_1235"
    INDEX 01 00:23:44
  TRACK 21 AUDIO
    TITLE "0:"
    INDEX 01 00:24:45
  TRACK 22 AUDIO
    TITLE "3:cjc093_1236"
    INDEX 01 00:25:01
  TRACK 23 AUDIO
    TITLE "0:"
    INDEX 01 00:27:18
  TRACK 24 AUDIO
    TITLE "4:cjc093_1237"
    INDEX 01 00:27:36
  TRACK 25 AUDIO
    TITLE "0:"
    INDEX 01 00:29:62
  TRACK 26 AUDIO
    TITLE "2:cjc093_1238"
    INDEX 01 00:30:73
  TRACK 27 AUDIO
    TITLE "0:"
    INDEX 01 00:32:07
  TRACK 28 AUDIO
    TITLE "3:cjc093_1239"
    INDEX 01 00:32:50
  TRACK 29 AUDIO
    TITLE "0:"
    INDEX 01 00:34:42
  TRACK 30 AUDIO
    TITLE "4:cjc093_1240"
    INDEX 01 00:34:71
  TRACK 31 AUDIO
    TITLE "0:"
    INDEX 01 00:38:33
  TRACK 32 AUDIO
    TITLE "3:cjc093_1241"
    INDEX 01 00:39:58
  TRACK 33 AUDIO
    TITLE "0:"
    INDEX 01 00:41:36
  TRACK 34 AUDIO
    TITLE "4:cjc093_1242"
    INDEX 01 00:42:16
  TRACK 35 AUDIO
    TITLE "0:"
    INDEX 01 00:46:06
  TRACK 36 AUDIO
    TITLE "2:cjc093_1243"
    INDEX 01 00:47:19
  TRACK 37 AUDIO
    TITLE "0:"
    INDEX 01 00:48:20
  TRACK 38 AUDIO
    TITLE "3:cjc093_1244"
    INDEX 01 00:48:48
  TRACK 39 AUDIO
    TITLE "0:"
    INDEX 01 00:50:56
  TRACK 40 AUDIO
    TITLE "4:cjc093_1245"
    INDEX 01 00:51:07
  TRACK 41 AUDIO
    TITLE "0:"
    INDEX 01 00:53:43
  TRACK 42 AUDIO
    TITLE "2:cjc093_1246"
    INDEX 01 00:54:56
  TRACK 43 AUDIO
    TITLE "0:"
    INDEX 01 00:55:57
  TRACK 44 AUDIO
    TITLE "3:cjc093_1247"
    INDEX 01 00:56:10
  TRACK 45 AUDIO
    TITLE "0:"
    INDEX 01 00:57:15
  TRACK 46 AUDIO
    TITLE "4:cjc093_1248"
    INDEX 01 00:57:66
  TRACK 47 AUDIO
    TITLE "0:"
    INDEX 01 01:00:55
  TRACK 48 AUDIO
    TITLE "3:cjc093_1249"
    INDEX 01 01:01:70
  TRACK 49 AUDIO
    TITLE "0:"
    INDEX 01 01:03:26
  TRACK 50 AUDIO
    TITLE "4:cjc093_1250"
    INDEX 01 01:04:07
  TRACK 51 AUDIO
    TITLE "0:"
    INDEX 01 01:07:15
  TRACK 52 AUDIO
    TITLE "2:cjc093_1251"
    INDEX 01 01:08:27
  TRACK 53 AUDIO
    TITLE "0:"
    INDEX 01 01:09:42
  TRACK 54 AUDIO
    TITLE "3:cjc093_1252"
    INDEX 01 01:10:04
  TRACK 55 AUDIO
    TITLE "0:"
    INDEX 01 01:12:13
  TRACK 56 AUDIO
    TITLE "4:cjc093_1253"
    INDEX 01 01:12:58
  TRACK 57 AUDIO
    TITLE "0:"
    INDEX 01 01:15:60
  TRACK 58 AUDIO
    TITLE "3:cjc093_1254"
    INDEX 01 01:16:71
  TRACK 59 AUDIO
    TITLE "0:"
    INDEX 01 01:18:11
  TRACK 60 AUDIO
    TITLE "4:cjc093_1255"
    INDEX 01 01:18:66
  TRACK 61 AUDIO
    TITLE "0:"
    INDEX 01 01:21:51
